# xmcd CD database file
# Copyright (C) 1995 Ti Kan
#
# Track frame offsets:
#	150
#	14217
#	35135
#	51220
#	66262
#	82537
#	98079
#	110995
#	128030
#	142222
#	160255
#	175680
#	204115
#	216010
#	231222
#
# Disc length: 3333 seconds
#
# Revision: 1
# Processed by: cddbd v1.4b41PL1 Copyright (c) Steve Scherf et al.
# Submitted via: NotifyCDPlayer(CDDB) 1.07
#
DISCID=d40d030f
DTITLE=Don Schiltz - Don Schlitz Live at The Bluebird (D4A$)
DYEAR=1900
DGENRE=
TTITLE0=Ready and Waiting
TTITLE1=The Gambler
TTITLE2=Letter In The Fire
TTITLE3=I Think About You
TTITLE4=The Truest Thing
TTITLE5=Stand A Little Rain
TTITLE6=You Are To Me
TTITLE7=Through My Eyes
TTITLE8=Come Home Tonight
TTITLE9=I'll Remember You
TTITLE10=Waiting For My Angel To Show
TTITLE11=When The World And We Were Young
TTITLE12=The Only Thing Missing
TTITLE13=I Really Have To Go
TTITLE14=Oscar The Angel
EXTD=
EXTT0=
EXTT1=
EXTT2=
EXTT3=
EXTT4=
EXTT5=
EXTT6=
EXTT7=
EXTT8=
EXTT9=
EXTT10=
EXTT11=
EXTT12=
EXTT13=
EXTT14=
PLAYORDER=
